# xmcd
#
# Track frame offsets: 
#        150
#        15026
#        28347
#        46173
#        55529
#        72292
#        86865
#        102066
#        113277
#        123662
#        142040
#        154867
#        170600
#        179741
#
# Disc length: 2524 seconds
#
# Revision: 0
# Processed by: cddbd v1.5.2PL0 Copyright (c) Steve Scherf et al.
# Submitted via: ExactAudioCopyFreeDBPlugin 1.0
#
DISCID=b509da0e
DTITLE=Mark Johnson and Emory Lester - Acoustic Vision
DYEAR=2009
DGENRE=Acoustic
TTITLE0=Brown County Breakdown
TTITLE1=Hodgkiss Hill
TTITLE2=The Dark and the Rolling Sea
TTITLE3=Blockade Runner at Cedar Key
TTITLE4=Mother of a Miner's Child
TTITLE5=Little Sean
TTITLE6=Brown Mountain Light
TTITLE7=Buck Creek Dawn
TTITLE8=The Old Time Drunkard
TTITLE9=Forever True
TTITLE10=Kayla Anne
TTITLE11=My Sally
TTITLE12=Browntown Road
TTITLE13=Bright Sunny South
EXTD=
EXTT0=
EXTT1=
EXTT2=
EXTT3=
EXTT4=
EXTT5=
EXTT6=
EXTT7=
EXTT8=
EXTT9=
EXTT10=
EXTT11=
EXTT12=
EXTT13=
PLAYORDER=
